<svg width="63" height="37" viewBox="0 0 63 37" fill="none" xmlns="http://www.w3.org/2000/svg">
<path d="M22.4862 22.4453V24H14.1033V22.4453H22.4862ZM14.5877 22.4453V26.7969H12.7127L12.6424 22.4453H14.5877ZM24.0018 22.4453L23.8846 26.7891H22.0408V22.4453H24.0018ZM21.1112 12.625V14.1875H15.8612V12.625H21.1112ZM22.6112 12.625V24H20.658V12.625H22.6112ZM15.4705 12.625H17.4315L17.158 17.2344C17.1164 17.9635 17.0408 18.6198 16.9315 19.2031C16.8221 19.7865 16.6893 20.3099 16.533 20.7734C16.382 21.2318 16.2101 21.638 16.0174 21.9922C15.8247 22.3411 15.619 22.6432 15.4002 22.8984C15.1815 23.1536 14.9575 23.3724 14.7283 23.5547C14.5044 23.7318 14.283 23.8802 14.0643 24H13.0174V22.4453H13.5252C13.6658 22.3151 13.8221 22.1276 13.994 21.8828C14.1658 21.6328 14.3325 21.3073 14.494 20.9062C14.6606 20.5 14.8065 19.9974 14.9315 19.3984C15.0565 18.7995 15.1424 18.0781 15.1893 17.2344L15.4705 12.625ZM30.5214 22.3047V18.2734C30.5214 17.9714 30.4667 17.7109 30.3574 17.4922C30.248 17.2734 30.0813 17.1042 29.8574 16.9844C29.6386 16.8646 29.3626 16.8047 29.0292 16.8047C28.7219 16.8047 28.4563 16.8568 28.2324 16.9609C28.0084 17.0651 27.8339 17.2057 27.7089 17.3828C27.5839 17.5599 27.5214 17.7604 27.5214 17.9844H25.6464C25.6464 17.651 25.7272 17.3281 25.8886 17.0156C26.0501 16.7031 26.2844 16.4245 26.5917 16.1797C26.899 15.9349 27.2662 15.7422 27.6933 15.6016C28.1204 15.4609 28.5996 15.3906 29.1308 15.3906C29.7662 15.3906 30.3287 15.4974 30.8183 15.7109C31.3131 15.9245 31.7011 16.2474 31.9824 16.6797C32.2688 17.1068 32.4121 17.6432 32.4121 18.2891V22.0469C32.4121 22.4323 32.4381 22.7786 32.4902 23.0859C32.5475 23.388 32.6282 23.651 32.7324 23.875V24H30.8027C30.7141 23.7969 30.6438 23.5391 30.5917 23.2266C30.5449 22.9089 30.5214 22.6016 30.5214 22.3047ZM30.7949 18.8594L30.8105 20.0234H29.4589C29.11 20.0234 28.8027 20.0573 28.5371 20.125C28.2714 20.1875 28.0501 20.2812 27.873 20.4062C27.6959 20.5312 27.5631 20.6823 27.4746 20.8594C27.386 21.0365 27.3417 21.237 27.3417 21.4609C27.3417 21.6849 27.3938 21.8906 27.498 22.0781C27.6022 22.2604 27.7532 22.4036 27.9511 22.5078C28.1542 22.612 28.399 22.6641 28.6855 22.6641C29.0709 22.6641 29.4068 22.5859 29.6933 22.4297C29.985 22.2682 30.2141 22.0729 30.3808 21.8438C30.5475 21.6094 30.636 21.388 30.6464 21.1797L31.2558 22.0156C31.1933 22.2292 31.0865 22.4583 30.9355 22.7031C30.7844 22.9479 30.5865 23.1823 30.3417 23.4062C30.1022 23.625 29.8131 23.8047 29.4746 23.9453C29.1412 24.0859 28.7558 24.1562 28.3183 24.1562C27.7662 24.1562 27.274 24.0469 26.8417 23.8281C26.4094 23.6042 26.0709 23.3047 25.8261 22.9297C25.5813 22.5495 25.4589 22.1198 25.4589 21.6406C25.4589 21.1927 25.5423 20.7969 25.7089 20.4531C25.8808 20.1042 26.1308 19.8125 26.4589 19.5781C26.7923 19.3438 27.1985 19.1667 27.6777 19.0469C28.1568 18.9219 28.7037 18.8594 29.3183 18.8594H30.7949ZM38.6348 15.5469V24H36.7442V15.5469H38.6348ZM41.4083 15.5469V17.0312H34.0176V15.5469H41.4083ZM47.7638 22.3047V18.2734C47.7638 17.9714 47.7092 17.7109 47.5998 17.4922C47.4904 17.2734 47.3237 17.1042 47.0998 16.9844C46.881 16.8646 46.605 16.8047 46.2717 16.8047C45.9644 16.8047 45.6987 16.8568 45.4748 16.9609C45.2508 17.0651 45.0763 17.2057 44.9513 17.3828C44.8263 17.5599 44.7638 17.7604 44.7638 17.9844H42.8888C42.8888 17.651 42.9696 17.3281 43.131 17.0156C43.2925 16.7031 43.5269 16.4245 43.8342 16.1797C44.1414 15.9349 44.5086 15.7422 44.9357 15.6016C45.3628 15.4609 45.842 15.3906 46.3732 15.3906C47.0086 15.3906 47.5711 15.4974 48.0607 15.7109C48.5555 15.9245 48.9435 16.2474 49.2248 16.6797C49.5112 17.1068 49.6545 17.6432 49.6545 18.2891V22.0469C49.6545 22.4323 49.6805 22.7786 49.7326 23.0859C49.7899 23.388 49.8706 23.651 49.9748 23.875V24H48.0451C47.9565 23.7969 47.8862 23.5391 47.8342 23.2266C47.7873 22.9089 47.7638 22.6016 47.7638 22.3047ZM48.0373 18.8594L48.0529 20.0234H46.7013C46.3524 20.0234 46.0451 20.0573 45.7795 20.125C45.5138 20.1875 45.2925 20.2812 45.1154 20.4062C44.9383 20.5312 44.8055 20.6823 44.717 20.8594C44.6284 21.0365 44.5842 21.237 44.5842 21.4609C44.5842 21.6849 44.6362 21.8906 44.7404 22.0781C44.8446 22.2604 44.9956 22.4036 45.1935 22.5078C45.3967 22.612 45.6414 22.6641 45.9279 22.6641C46.3133 22.6641 46.6493 22.5859 46.9357 22.4297C47.2274 22.2682 47.4565 22.0729 47.6232 21.8438C47.7899 21.6094 47.8784 21.388 47.8888 21.1797L48.4982 22.0156C48.4357 22.2292 48.3289 22.4583 48.1779 22.7031C48.0269 22.9479 47.8289 23.1823 47.5842 23.4062C47.3446 23.625 47.0555 23.8047 46.717 23.9453C46.3836 24.0859 45.9982 24.1562 45.5607 24.1562C45.0086 24.1562 44.5164 24.0469 44.0842 23.8281C43.6519 23.6042 43.3133 23.3047 43.0685 22.9297C42.8237 22.5495 42.7013 22.1198 42.7013 21.6406C42.7013 21.1927 42.7847 20.7969 42.9513 20.4531C43.1232 20.1042 43.3732 19.8125 43.7013 19.5781C44.0347 19.3438 44.4409 19.1667 44.9201 19.0469C45.3993 18.9219 45.9461 18.8594 46.5607 18.8594H48.0373Z" fill="#6C757D"/>
<path d="M12.3455 25.5625H50.6545V26.3438H12.3455V25.5625Z" fill="#6C757D"/>
</svg>
